# xmcd
#
# Track frame offsets: 
#        150
#        21811
#        45309
#        64895
#        86024
#        102855
#        121847
#        143128
#        162955
#        182086
#
# Disc length: 2729 seconds
#
# Revision: 0
# Processed by: cddbd v1.5.2PL0 Copyright (c) Steve Scherf et al.
# Submitted via: ExactAudioCopyFreeDBPlugin 1.0
#
DISCID=7c0aa70a
DTITLE=Rockers - Harakah (Megapack Volume 2)
DYEAR=2010
DGENRE=Rock
TTITLE0=Harakah
TTITLE1=Resepi Bahagia
TTITLE2=Kesedaran
TTITLE3=Terguris Kelukaan
TTITLE4=Perwira Bangsa
TTITLE5=Pengalaman Hidup
TTITLE6=Rayuan Syaitan
TTITLE7=Termungkinkah
TTITLE8=Lagenda Rock 'N' Roll
TTITLE9=Musnah Harapan
EXTD=
EXTT0=
EXTT1=
EXTT2=
EXTT3=
EXTT4=
EXTT5=
EXTT6=
EXTT7=
EXTT8=
EXTT9=
PLAYORDER=
